<?xml version="1.0" standalone="no"?>
<!DOCTYPE svg PUBLIC "-//W3C//DTD SVG 20010904//EN"
 "http://www.w3.org/TR/2001/REC-SVG-20010904/DTD/svg10.dtd">
<svg version="1.0" xmlns="http://www.w3.org/2000/svg"
 width="1280.000000pt" height="979.000000pt" viewBox="0 0 1280.000000 979.000000"
 preserveAspectRatio="xMidYMid meet">
<g transform="translate(0.000000,979.000000) scale(0.100000,-0.100000)"
fill="#000000" stroke="none">
<path d="M10221 9748 c26 -24 102 -82 170 -129 470 -321 834 -759 1143 -1376
304 -606 530 -1378 605 -2058 80 -722 80 -1540 0 -2070 -71 -472 -191 -927
-364 -1380 -40 -104 -80 -214 -89 -244 l-16 -54 21 19 c31 28 192 274 303 464
130 222 319 606 404 821 160 403 319 966 361 1284 58 429 53 1538 -9 1857 -54
281 -196 695 -344 1003 -331 689 -802 1197 -1450 1564 -194 110 -530 263 -678
309 -35 11 -72 23 -83 27 -12 4 -1 -11 26 -37z"/>
<path d="M7218 9470 c-82 -13 -133 -43 -219 -129 -136 -136 -206 -267 -280
-524 -67 -237 -98 -286 -313 -494 -473 -460 -1161 -998 -1824 -1426 -597 -387
-1079 -627 -1947 -972 -881 -349 -1030 -425 -1209 -616 -191 -202 -282 -378
-323 -624 -25 -155 -25 -590 1 -790 68 -525 212 -824 451 -936 96 -45 167 -59
385 -74 231 -16 298 -31 430 -96 210 -104 414 -395 544 -777 55 -162 125 -422
207 -772 91 -392 170 -625 269 -792 54 -90 174 -216 255 -267 116 -74 279
-129 440 -150 50 -7 117 -17 151 -22 88 -13 177 -11 278 7 96 16 130 30 160
63 31 34 17 100 -37 179 -24 37 -52 81 -61 99 -23 46 -20 122 9 198 40 108 49
175 30 248 -19 74 -42 116 -156 274 -48 67 -93 139 -99 159 -7 21 -13 94 -14
163 -1 123 -2 128 -34 187 -18 33 -70 102 -116 151 -101 111 -142 190 -162
310 -16 99 -26 136 -99 363 -76 234 -90 309 -90 471 0 131 1 137 30 194 50 97
59 99 370 103 336 5 649 -15 1115 -69 852 -99 1810 -300 2261 -474 135 -52
328 -153 519 -270 309 -191 418 -228 565 -190 353 92 566 581 662 1525 25 247
25 1037 0 1315 -56 607 -139 1098 -278 1643 -302 1189 -742 2165 -1164 2587
-119 119 -182 162 -297 202 -63 23 -92 27 -213 29 -77 2 -166 -1 -197 -6z
m-648 -1487 c0 -16 -6 -66 -14 -113 -35 -206 -41 -308 -40 -675 0 -270 5 -420
17 -555 94 -999 350 -2036 715 -2895 33 -77 129 -286 214 -465 86 -179 158
-333 161 -343 13 -35 -23 -28 -185 33 -295 113 -482 171 -813 254 -601 149
-935 193 -1880 246 -295 16 -452 30 -550 46 -364 62 -668 361 -815 801 -72
217 -100 402 -100 663 0 403 71 613 284 838 175 185 427 364 1031 731 1142
697 1347 844 1805 1305 85 86 158 156 162 156 5 0 8 -12 8 -27z m336 -1149
c260 -199 469 -532 630 -999 127 -369 183 -708 184 -1109 0 -401 -48 -794
-131 -1063 -33 -107 -48 -98 -113 64 -126 315 -315 977 -400 1403 -79 398
-183 1040 -230 1415 -37 299 -41 345 -26 345 7 0 46 -25 86 -56z"/>
<path d="M9515 8801 c3 -6 67 -53 143 -107 305 -216 495 -408 692 -704 681
-1022 955 -2642 679 -4010 -56 -277 -125 -514 -230 -786 -90 -235 -104 -296
-52 -226 111 150 288 452 408 697 244 497 371 928 432 1467 14 121 17 237 17
553 0 739 -47 1019 -240 1455 -296 666 -769 1173 -1381 1478 -249 125 -491
219 -468 183z"/>
<path d="M8860 7981 c0 -11 50 -49 112 -84 154 -89 423 -375 601 -639 235
-351 462 -1013 543 -1588 34 -246 28 -947 -11 -1305 -35 -318 -84 -511 -220
-880 -35 -93 -66 -181 -70 -195 -26 -84 103 107 245 364 339 613 489 1180 490
1846 0 669 -161 1203 -502 1666 -100 136 -331 366 -458 456 -190 134 -480 291
-632 342 -83 28 -98 31 -98 17z"/>
<path d="M1160 5257 c-71 -29 -407 -203 -575 -297 -244 -137 -325 -201 -407
-327 -106 -161 -134 -247 -169 -513 -26 -206 17 -504 96 -665 118 -239 364
-385 772 -460 170 -30 553 -55 553 -35 0 6 -36 52 -80 102 -205 232 -309 444
-362 739 -20 111 -23 157 -23 444 0 345 7 413 61 615 30 111 106 276 161 346
68 86 66 89 -27 51z m-459 -534 c13 -36 28 -251 29 -418 1 -318 45 -583 146
-870 60 -169 61 -175 39 -192 -51 -37 -110 5 -153 110 -85 205 -156 457 -173
614 -13 118 -7 438 11 583 20 162 71 250 101 173z m-320 -170 c7 -19 9 -112 4
-288 -8 -310 -2 -363 66 -592 59 -196 79 -276 79 -325 0 -31 -4 -38 -19 -38
-27 0 -59 45 -119 165 -67 134 -97 206 -128 312 -23 79 -27 110 -31 294 -6
227 5 341 39 422 33 77 89 102 109 50z"/>
</g>
</svg>
